<mxfile host="www.draw.io" modified="2020-02-09T18:12:06.465Z" agent="Mozilla/5.0 (Windows NT 10.0; Win64; x64) AppleWebKit/537.36 (KHTML, like Gecko) Chrome/79.0.3945.130 Safari/537.36" etag="o85a83bIqQtDHrpAlvZk" version="12.6.6" type="github">
  <diagram id="Fsz1CsS58rb7olredllf" name="Page-1">
    <mxGraphModel dx="1102" dy="614" grid="1" gridSize="10" guides="1" tooltips="1" connect="1" arrows="1" fold="1" page="1" pageScale="1" pageWidth="850" pageHeight="1100" math="0" shadow="0">
      <root>
        <mxCell id="0"/>
        <mxCell id="1" parent="0"/>
        <mxCell id="s8KbxLy5XO2bmnG4WnqS-1" value="1.0&lt;br&gt;Home page" style="whiteSpace=wrap;html=1;aspect=fixed;" vertex="1" parent="1">
          <mxGeometry x="120" y="40" width="80" height="80" as="geometry"/>
        </mxCell>
        <mxCell id="s8KbxLy5XO2bmnG4WnqS-3" value="1.1.2.1&lt;br&gt;Display new staff form" style="whiteSpace=wrap;html=1;aspect=fixed;" vertex="1" parent="1">
          <mxGeometry x="242.5" y="560" width="80" height="80" as="geometry"/>
        </mxCell>
        <mxCell id="s8KbxLy5XO2bmnG4WnqS-5" value="" style="endArrow=classic;html=1;exitX=0.5;exitY=1;exitDx=0;exitDy=0;entryX=0.5;entryY=0;entryDx=0;entryDy=0;" edge="1" parent="1" source="s8KbxLy5XO2bmnG4WnqS-1" target="s8KbxLy5XO2bmnG4WnqS-71">
          <mxGeometry width="50" height="50" relative="1" as="geometry">
            <mxPoint x="250" y="170" as="sourcePoint"/>
            <mxPoint x="160" y="170" as="targetPoint"/>
          </mxGeometry>
        </mxCell>
        <mxCell id="s8KbxLy5XO2bmnG4WnqS-6" value="Credentials" style="text;html=1;strokeColor=none;fillColor=none;align=center;verticalAlign=middle;whiteSpace=wrap;rounded=0;" vertex="1" parent="1">
          <mxGeometry y="300" width="90" height="20" as="geometry"/>
        </mxCell>
        <mxCell id="s8KbxLy5XO2bmnG4WnqS-7" value="" style="endArrow=classic;html=1;" edge="1" parent="1">
          <mxGeometry width="50" height="50" relative="1" as="geometry">
            <mxPoint x="80" y="320" as="sourcePoint"/>
            <mxPoint x="60" y="360" as="targetPoint"/>
            <Array as="points"/>
          </mxGeometry>
        </mxCell>
        <mxCell id="s8KbxLy5XO2bmnG4WnqS-17" value="" style="ellipse;whiteSpace=wrap;html=1;aspect=fixed;fillColor=#000000;" vertex="1" parent="1">
          <mxGeometry x="110" y="320" width="10" height="10" as="geometry"/>
        </mxCell>
        <mxCell id="s8KbxLy5XO2bmnG4WnqS-20" value="" style="ellipse;whiteSpace=wrap;html=1;aspect=fixed;" vertex="1" parent="1">
          <mxGeometry x="90" y="390" width="10" height="10" as="geometry"/>
        </mxCell>
        <mxCell id="s8KbxLy5XO2bmnG4WnqS-21" value="" style="ellipse;whiteSpace=wrap;html=1;aspect=fixed;" vertex="1" parent="1">
          <mxGeometry x="80" y="310" width="10" height="10" as="geometry"/>
        </mxCell>
        <mxCell id="s8KbxLy5XO2bmnG4WnqS-22" value="" style="endArrow=classic;html=1;" edge="1" parent="1">
          <mxGeometry width="50" height="50" relative="1" as="geometry">
            <mxPoint x="100" y="390" as="sourcePoint"/>
            <mxPoint x="110" y="360" as="targetPoint"/>
          </mxGeometry>
        </mxCell>
        <mxCell id="s8KbxLy5XO2bmnG4WnqS-26" value="" style="endArrow=classic;html=1;entryX=0.5;entryY=0;entryDx=0;entryDy=0;exitX=0.25;exitY=1;exitDx=0;exitDy=0;" edge="1" parent="1" source="s8KbxLy5XO2bmnG4WnqS-71" target="s8KbxLy5XO2bmnG4WnqS-31">
          <mxGeometry width="50" height="50" relative="1" as="geometry">
            <mxPoint x="120" y="280" as="sourcePoint"/>
            <mxPoint x="40" y="400" as="targetPoint"/>
          </mxGeometry>
        </mxCell>
        <mxCell id="s8KbxLy5XO2bmnG4WnqS-27" value="" style="endArrow=classic;html=1;entryX=0.5;entryY=0;entryDx=0;entryDy=0;exitX=1;exitY=1;exitDx=0;exitDy=0;" edge="1" parent="1" source="s8KbxLy5XO2bmnG4WnqS-72" target="s8KbxLy5XO2bmnG4WnqS-32">
          <mxGeometry width="50" height="50" relative="1" as="geometry">
            <mxPoint x="260" y="320" as="sourcePoint"/>
            <mxPoint x="250" y="360" as="targetPoint"/>
          </mxGeometry>
        </mxCell>
        <mxCell id="s8KbxLy5XO2bmnG4WnqS-31" value="1.1.1&lt;br&gt;Validate credentials" style="shape=process;whiteSpace=wrap;html=1;backgroundOutline=1;" vertex="1" parent="1">
          <mxGeometry y="410" width="120" height="60" as="geometry"/>
        </mxCell>
        <mxCell id="s8KbxLy5XO2bmnG4WnqS-32" value="1.1.2&lt;br&gt;Display landing page" style="shape=process;whiteSpace=wrap;html=1;backgroundOutline=1;" vertex="1" parent="1">
          <mxGeometry x="220" y="410" width="120" height="60" as="geometry"/>
        </mxCell>
        <mxCell id="s8KbxLy5XO2bmnG4WnqS-34" value="Valid user variable" style="text;html=1;strokeColor=none;fillColor=none;align=center;verticalAlign=middle;whiteSpace=wrap;rounded=0;" vertex="1" parent="1">
          <mxGeometry x="105" y="380" width="55" height="20" as="geometry"/>
        </mxCell>
        <mxCell id="s8KbxLy5XO2bmnG4WnqS-37" value="" style="endArrow=classic;html=1;" edge="1" parent="1">
          <mxGeometry width="50" height="50" relative="1" as="geometry">
            <mxPoint x="120" y="320" as="sourcePoint"/>
            <mxPoint x="132.5" y="290" as="targetPoint"/>
          </mxGeometry>
        </mxCell>
        <mxCell id="s8KbxLy5XO2bmnG4WnqS-40" value="Invalid credentials" style="text;html=1;strokeColor=none;fillColor=none;align=center;verticalAlign=middle;whiteSpace=wrap;rounded=0;" vertex="1" parent="1">
          <mxGeometry x="122.5" y="320" width="65" height="20" as="geometry"/>
        </mxCell>
        <mxCell id="s8KbxLy5XO2bmnG4WnqS-65" value="" style="endArrow=classic;html=1;" edge="1" parent="1">
          <mxGeometry width="50" height="50" relative="1" as="geometry">
            <mxPoint x="230" y="350" as="sourcePoint"/>
            <mxPoint x="250" y="380" as="targetPoint"/>
          </mxGeometry>
        </mxCell>
        <mxCell id="s8KbxLy5XO2bmnG4WnqS-66" value="Valid user variable" style="text;html=1;strokeColor=none;fillColor=none;align=center;verticalAlign=middle;whiteSpace=wrap;rounded=0;" vertex="1" parent="1">
          <mxGeometry x="187.5" y="370" width="55" height="20" as="geometry"/>
        </mxCell>
        <mxCell id="s8KbxLy5XO2bmnG4WnqS-67" value="" style="ellipse;whiteSpace=wrap;html=1;aspect=fixed;" vertex="1" parent="1">
          <mxGeometry x="220" y="340" width="10" height="10" as="geometry"/>
        </mxCell>
        <mxCell id="s8KbxLy5XO2bmnG4WnqS-69" value="" style="endArrow=classic;html=1;exitX=0.5;exitY=1;exitDx=0;exitDy=0;" edge="1" parent="1" source="s8KbxLy5XO2bmnG4WnqS-32" target="s8KbxLy5XO2bmnG4WnqS-3">
          <mxGeometry width="50" height="50" relative="1" as="geometry">
            <mxPoint x="280" y="540" as="sourcePoint"/>
            <mxPoint x="330" y="490" as="targetPoint"/>
          </mxGeometry>
        </mxCell>
        <mxCell id="s8KbxLy5XO2bmnG4WnqS-71" value="1.1&lt;br&gt;Log in" style="shape=process;whiteSpace=wrap;html=1;backgroundOutline=1;fillColor=#FFFFFF;" vertex="1" parent="1">
          <mxGeometry x="100" y="200" width="120" height="60" as="geometry"/>
        </mxCell>
        <mxCell id="s8KbxLy5XO2bmnG4WnqS-72" value="" style="rhombus;whiteSpace=wrap;html=1;fillColor=#FFFFFF;" vertex="1" parent="1">
          <mxGeometry x="180" y="250" width="20" height="20" as="geometry"/>
        </mxCell>
      </root>
    </mxGraphModel>
  </diagram>
</mxfile>
